<?xml version="1.0" encoding="UTF-8"?>
<svg width="232px" height="126px" viewBox="0 0 232 126" version="1.1" xmlns="http://www.w3.org/2000/svg" xmlns:xlink="http://www.w3.org/1999/xlink">
    <!-- Generator: Sketch 52 (66869) - http://www.bohemiancoding.com/sketch -->
    <title>undraw_page_not_found_su7k</title>
    <desc>Created with Sketch.</desc>
    <g id="Page-1" stroke="none" stroke-width="1" fill="#14957D" fill-rule="evenodd">
        <g id="404" transform="translate(-396.000000, -137.000000)">
            <g id="undraw_page_not_found_su7k" transform="translate(397.000000, 137.000000)">
                <ellipse id="Oval" fill="#F2F2F2" cx="115.780257" cy="118.312794" rx="112.965549" ry="7.52157538"></ellipse>
                <path d="M111.450567,35.9713286 C93.0454121,35.9713286 79.8307064,47.8475028 79.8307064,75.5585708 C79.8307064,106.964448 93.0454078,115.27777 111.450567,115.27777 C129.855726,115.27777 143.857652,106.172705 143.857652,75.5585708 C143.857642,42.8331185 129.855721,35.9713286 111.450567,35.9713286 Z M111.571552,104.853131 C98.8237145,104.853131 92.1637669,97.3312803 92.1637669,75.5788514 C92.1637669,56.3855298 99.0963373,46.2640123 111.844186,46.2640123 C124.592034,46.2640123 131.524605,52.9124486 131.524605,75.5788514 C131.524586,96.7828982 124.31939,104.853131 111.571552,104.853131 Z" id="Shape" fill="#2F2E41" fill-rule="nonzero"></path>
                <path d="M68.8096846,93.3728298 L61.1999162,93.3728298 L61.1999162,70.8351172 C61.1999138,68.342346 59.1906822,66.3215562 56.7121686,66.3215538 L54.9290519,66.3215538 C53.7388257,66.3215533 52.5973479,66.7970883 51.7557307,67.6435465 C50.9141135,68.4900047 50.4412979,69.6380486 50.4412979,70.8351215 L50.4412979,93.3728298 L28.9767556,93.3728298 C28.0786048,93.372831 27.2460392,92.899803 26.782449,92.1261191 C26.3188588,91.3524351 26.2919498,90.391089 26.7115276,89.5923991 L49.42936,46.3474028 C50.0017,45.2579068 50.1062752,43.980434 49.7188157,42.8114613 C49.3313562,41.6424887 48.4855512,40.6836568 47.3776957,40.1574923 L46.0366051,39.5205569 C43.8738262,38.4933695 41.2901149,39.3526403 40.1625465,41.4741062 L12.4551553,93.6041938 C11.9833366,94.4918961 11.736493,95.4829353 11.7364931,96.489512 C11.7364931,98.1127255 12.3776242,99.6694564 13.5188448,100.817241 C14.6600654,101.965027 16.2078926,102.609845 17.821822,102.609845 L50.4412979,102.609845 L50.4412979,116.861257 C50.4412979,118.296143 51.0080441,119.67226 52.0168588,120.686878 C53.0256736,121.701496 54.39392,122.271503 55.8205995,122.271503 L55.8206102,122.271503 C57.2472898,122.271503 58.6155362,121.701496 59.6243509,120.686878 C60.6331657,119.67226 61.1999119,118.296143 61.1999119,116.861257 L61.1999119,102.609853 L68.8096739,102.609853 C71.3458159,102.609853 73.4017653,100.542077 73.4017653,97.9913458 C73.40177,95.4406155 71.3458258,93.3728358 68.8096846,93.3728298 Z" id="Path" fill="#6C63FF"></path>
                <path d="M209.721416,93.3728298 L202.111654,93.3728298 L202.111654,70.8351172 C202.111652,68.3423435 200.102416,66.3215527 197.6239,66.3215538 L195.840783,66.3215538 C194.650557,66.3215533 193.509079,66.7970883 192.667462,67.6435465 C191.825845,68.4900047 191.353029,69.6380486 191.353029,70.8351215 L191.353029,93.3728298 L169.888487,93.3728298 C168.990336,93.3728323 168.157769,92.8998045 167.694179,92.1261201 C167.230588,91.3524357 167.20368,90.3910889 167.623259,89.5923991 L190.341089,46.3474114 C190.913432,45.2579147 191.018008,43.9804403 190.630549,42.8114657 C190.24309,41.6424911 189.397284,40.6836576 188.289427,40.1574923 L186.948337,39.5205569 C184.785557,38.4933693 182.201845,39.35264 181.074276,41.4741062 L153.366887,93.6041938 C152.895068,94.4918961 152.648224,95.4829353 152.648225,96.489512 C152.648225,99.8696784 155.372718,102.609845 158.733551,102.609845 L191.353029,102.609845 L191.353029,116.861257 C191.353029,119.849253 193.761425,122.271503 196.732331,122.271503 C199.703237,122.271503 202.111633,119.849253 202.111633,116.861257 L202.111633,102.609853 L209.721395,102.609853 C212.257537,102.609853 214.313486,100.542077 214.313486,97.9913458 C214.313491,95.4406197 212.257553,93.3728417 209.721416,93.3728298 Z" id="Path" fill="#6C63FF"></path>
                <path d="M70.9089293,90.7336769 L63.2991652,90.7336769 L63.2991652,68.1959686 C63.2991657,66.9988957 62.8263506,65.8508515 61.9847338,65.0043929 C61.1431171,64.1579343 60.0016395,63.6823988 58.8114133,63.6823988 L57.0282966,63.6823988 C54.5497785,63.6823988 52.5405426,65.7031928 52.5405426,68.1959686 L52.5405426,90.7336769 L31.0760003,90.7336769 C30.1778494,90.7336781 29.3452839,90.2606501 28.8816937,89.4869661 C28.4181035,88.7132822 28.3911945,87.7519361 28.8107723,86.9532462 L51.5286025,43.7082628 C52.1009463,42.6187657 52.2055238,41.3412902 51.8180646,40.1723145 C51.4306053,39.0033389 50.5847986,38.0445046 49.4769404,37.5183394 L48.1358498,36.881404 C45.973073,35.8542147 43.389362,36.7134804 42.261789,38.8349425 L14.5544,90.9650431 C14.0825813,91.8527461 13.8357377,92.843786 13.8357378,93.8503634 C13.8357378,97.2305298 16.5602314,99.970696 19.9210645,99.970696 L52.5405426,99.970696 L52.5405426,114.222108 C52.5405426,115.656994 53.1072888,117.033112 54.1161035,118.04773 C55.1249183,119.062348 56.4931647,119.632354 57.9198442,119.632354 L57.9198549,119.632354 C60.8907612,119.632354 63.2991566,117.210104 63.2991566,114.222108 L63.2991566,99.9707046 L70.9089208,99.9707046 C72.1268191,99.9707046 73.2948355,99.4841133 74.1560197,98.6179751 C75.0172039,97.751837 75.5010121,96.5771015 75.5010121,95.3521972 C75.5010155,94.1272922 75.01721,92.9525547 74.1560273,92.086414 C73.2948446,91.2202733 72.1268284,90.7336792 70.9089293,90.7336769 Z" id="Path" stroke="#3F3D56" stroke-width="0.5"></path>
                <path d="M213.657498,90.7336769 L206.047736,90.7336769 L206.047736,68.1959686 C206.047736,65.7031928 204.0385,63.6823988 201.559982,63.6823988 L199.776865,63.6823988 C198.586639,63.6823988 197.445161,64.1579342 196.603544,65.0043928 C195.761927,65.8508513 195.289111,66.9988955 195.289111,68.1959686 L195.289111,90.7336769 L173.824569,90.7336769 C172.926418,90.7336781 172.093852,90.2606501 171.630262,89.4869661 C171.166672,88.7132822 171.139763,87.7519361 171.559341,86.9532462 L194.277171,43.7082628 C194.849515,42.6187657 194.954092,41.3412902 194.566633,40.1723145 C194.179174,39.0033389 193.333367,38.0445046 192.225509,37.5183394 L190.884418,36.881404 C188.721641,35.8542147 186.13793,36.7134804 185.010357,38.8349425 L157.302968,90.9650431 C156.83115,91.8527461 156.584306,92.843786 156.584306,93.8503634 C156.584306,97.2305298 159.3088,99.970696 162.669633,99.970696 L195.289111,99.970696 L195.289111,114.222108 C195.289111,117.210104 197.697506,119.632354 200.668413,119.632354 C203.639319,119.632354 206.047714,117.210104 206.047714,114.222108 L206.047714,99.9707046 L213.657476,99.9707046 C214.875375,99.9707046 216.043391,99.4841133 216.904575,98.6179751 C217.765759,97.751837 218.249568,96.5771015 218.249568,95.3521972 C218.249575,92.8014694 216.193636,90.7336888 213.657498,90.7336769 Z" id="Path" stroke="#3F3D56" stroke-width="0.5"></path>
                <path d="M115.649054,33.5960951 C97.2438993,33.5960951 84.0291937,45.4722671 84.0291937,73.1833372 C84.0291937,104.589214 97.2438951,112.902537 115.649054,112.902537 C134.054213,112.902537 148.05614,103.797471 148.05614,73.1833372 C148.056129,40.4578828 134.054209,33.5960951 115.649054,33.5960951 Z M115.77005,102.477896 C103.022212,102.477896 96.3622648,94.9560468 96.3622648,73.2036178 C96.3622648,54.0102963 103.294835,43.8887788 116.042684,43.8887788 C128.790532,43.8887788 135.723103,50.5372151 135.723103,73.2036178 C135.723073,94.4076625 128.517877,102.477896 115.77004,102.477896 L115.77005,102.477896 Z" id="Shape" stroke="#3F3D56" stroke-width="0.5"></path>
                <ellipse id="Oval" fill="#2F2E41" cx="100.896134" cy="3.930864" rx="2.76282253" ry="2.77871569"></ellipse>
                <ellipse id="Oval" fill="#2F2E41" cx="107.634723" cy="10.098256" rx="7.74937672" ry="10.098256"></ellipse>
                <path d="M107.634723,17.1467025 C103.752649,17.1467025 100.537424,13.4268982 99.9732477,8.57335231 C99.9145573,9.07950794 99.8852073,9.58867009 99.8853466,10.098256 C99.8853466,15.6753671 103.354864,20.196512 107.634723,20.196512 C111.914582,20.196512 115.384102,15.6753735 115.384102,10.098256 C115.384241,9.58867009 115.354891,9.07950794 115.296201,8.57335231 C114.732024,13.4268982 111.516806,17.1467025 107.634723,17.1467025 Z" id="Path" fill="#000000" opacity="0.1"></path>
                <path d="M123.403821,39.6714252 C123.237401,40.3592452 122.519816,40.9101022 121.725119,41.2949751 C120.054325,42.1041363 117.993444,42.3455954 115.994457,42.4266446 C115.484506,42.457813 114.972901,42.4483064 114.464443,42.3982138 C113.47915,42.3023649 112.554819,41.8750169 111.840961,41.1852948 C111.737376,41.1173933 111.675691,41.0007737 111.677591,40.876433 C111.679491,40.7520923 111.74471,40.6374344 111.850321,40.5727668 C112.914532,39.397008 114.690457,38.6760791 116.479474,38.1569935 C117.836003,37.7633932 120.201726,36.7438788 121.681271,36.8814643 C123.11434,37.0147378 123.61395,38.8029643 123.403821,39.6714252 Z" id="Path" fill="#3F3D56"></path>
                <path d="M123.403821,39.6714252 C123.237401,40.3592452 122.519816,40.9101022 121.725119,41.2949751 C120.054325,42.1041363 117.993444,42.3455954 115.994457,42.4266446 C115.484506,42.457813 114.972901,42.4483064 114.464443,42.3982138 C113.47915,42.3023649 112.554819,41.8750169 111.840961,41.1852948 C111.737376,41.1173933 111.675691,41.0007737 111.677591,40.876433 C111.679491,40.7520923 111.74471,40.6374344 111.850321,40.5727668 C112.914532,39.397008 114.690457,38.6760791 116.479474,38.1569935 C117.836003,37.7633932 120.201726,36.7438788 121.681271,36.8814643 C123.11434,37.0147378 123.61395,38.8029643 123.403821,39.6714252 Z" id="Path" fill="#000000" opacity="0.1"></path>
                <path d="M102.160231,34.5307631 C101.650211,35.5360691 101.55788,36.703897 101.903526,37.7776345 C102.255081,38.8432551 102.913119,39.7799981 103.794325,40.4692594 C105.956126,42.212072 108.931386,42.4519006 111.701864,42.4277043 C114.129916,42.4064561 116.554536,42.2393185 118.962765,41.9271849 C119.769772,41.855256 120.562795,41.6700649 121.318751,41.3770022 C122.222994,40.9835397 123.017586,40.2618354 123.339496,39.3253129 C123.661406,38.3887905 123.43292,37.2420138 122.668378,36.6170065 C121.996611,36.0678425 121.070231,35.9923049 120.206104,35.9400763 L115.261823,35.6412409 C115.750305,35.1440492 116.400721,34.8628409 116.995573,34.5013911 C117.784775,34.0218545 118.309096,33.2167188 118.882927,32.4908382 C119.767101,31.4280571 120.72909,30.4332914 121.760839,29.5148689 C121.921749,30.4432585 122.505705,31.2056166 123.192949,31.846192 C123.880193,32.4867674 124.672404,33.0024735 125.386708,33.6123738 C127.116762,35.0895634 128.362537,37.0944754 130.182047,38.4586203 C131.433704,38.1278357 132.603824,37.5402983 133.618903,36.7329157 L132.911751,35.444612 C132.852825,35.3120263 132.761054,35.1968686 132.645219,35.1101585 C132.445061,34.9863123 132.186986,35.0501265 131.954576,35.0150791 C131.333358,34.9213868 131.06205,34.2000637 130.818282,33.6177994 C130.149074,32.0192729 128.867779,30.7790452 127.773495,29.4385172 C126.965821,28.4489661 126.249328,27.3875677 125.632874,26.267444 C125.265277,25.5994028 124.92874,24.9038289 124.42988,24.3282911 C123.93102,23.7527532 123.232,23.3002603 122.472846,23.2986428 C121.802072,23.2972169 121.183385,23.6397151 120.606672,23.9842292 C118.850121,25.0335994 117.160047,26.1916487 115.546205,27.4516932 C114.701638,28.1111363 113.862309,28.8078517 112.871581,29.212232 C112.454523,29.3824612 112.014876,29.4988055 111.614668,29.7059431 C110.913718,30.0687369 110.381746,30.6825723 109.809086,31.2274523 C107.76659,33.1709 104.970158,34.4300729 102.160231,34.5307631 Z" id="Path" fill="#3F3D56"></path>
                <path d="M112.498632,20.6980329 C112.475672,21.292091 112.35003,21.8775902 112.127336,22.4282929 C111.899165,22.9835103 111.451725,23.4183073 110.892164,23.6285646 C110.49909,23.734477 110.087045,23.7479264 109.68797,23.6678702 C109.339979,23.6313149 109.004639,23.5164226 108.706827,23.3317172 C108.243221,23.0111452 108.012084,22.4391354 107.927851,21.8793249 C107.843619,21.3201865 107.88135,20.7488637 107.827446,20.1856652 C107.774924,19.7307633 107.688883,19.2804127 107.570034,18.8383289 C107.533643,18.69126 107.49658,18.5448717 107.460187,18.3984791 C107.424479,18.2520886 107.389437,18.105696 107.357091,17.9593098 C107.327438,17.8217265 107.299816,17.6834711 107.276225,17.5445351 C107.256688,17.4272883 107.239177,17.3093588 107.22636,17.1907551 C107.214563,16.8391431 107.156326,16.4906705 107.053181,16.1545009 C106.956368,15.9364773 106.835192,15.7302469 106.691993,15.5397932 C106.63067,15.451688 106.571369,15.3635849 106.516784,15.2720874 C106.358923,15.0343126 106.285553,14.7498766 106.308572,14.4649055 C106.315055,14.4208508 106.325659,14.3775099 106.340241,14.3354594 C106.345629,14.3191935 106.351692,14.3029363 106.358444,14.2873425 C106.481519,14.2537355 106.580136,14.1611394 106.621918,14.0399538 C106.645093,13.9117379 106.634167,13.7796396 106.590249,13.6570366 C106.539896,13.4857198 106.470972,13.3204888 106.384718,13.1643206 C106.328118,13.0613043 106.13607,12.8756062 106.134721,12.7576745 C106.132022,12.5204671 106.592947,12.3293455 106.779607,12.2358169 C107.349368,11.9488682 107.984692,11.8192946 108.620586,11.860352 C109.028266,11.8881366 109.470322,12.0141969 109.695397,12.3578086 C109.897557,12.6675317 109.870589,13.0687523 109.956845,13.4286342 C109.965928,13.4809439 109.987941,13.5301177 110.02086,13.5716345 C110.064837,13.6119373 110.120172,13.6375121 110.179221,13.6448265 C110.279047,13.6648 110.381368,13.6689179 110.482462,13.6570302 L110.483136,13.6570302 C110.509857,13.6548996 110.536415,13.65105 110.562647,13.6455049 C110.72007,13.6162931 110.868885,13.5516519 110.997957,13.4564188 C111.081521,13.4340532 111.165754,13.4157542 111.250657,13.4015215 C111.254087,13.4011709 111.257476,13.4004893 111.260776,13.3994862 C111.598379,14.4709858 111.642182,15.6197483 111.918463,16.710904 C112.05525,17.253768 112.251346,17.7898582 112.278967,18.3483117 C112.280991,18.3727083 112.281666,18.3977855 112.28234,18.4228606 C112.286388,18.6024612 112.272239,18.7834145 112.279642,18.9623388 C112.282221,19.0429087 112.291238,19.1231396 112.306606,19.2022557 C112.336821,19.3295073 112.374394,19.4548769 112.419134,19.5777249 L112.421158,19.5838225 C112.433958,19.6231323 112.446092,19.6631206 112.4562,19.7031046 C112.463603,19.7322462 112.470349,19.7607135 112.475746,19.7898551 L112.476412,19.7918862 C112.526299,20.091367 112.53378,20.3964428 112.498632,20.6980329 Z" id="Path" fill="#FBBEBE"></path>
                <ellipse id="Oval" fill="#FBBEBE" cx="107.769496" cy="9.69161415" rx="3.97576844" ry="3.99863908"></ellipse>
                <path d="M133.010908,31.4780911 C132.895672,30.3871594 132.510135,29.3427402 131.889605,28.4404852 C131.992706,29.0572218 132.096033,29.6737345 132.199586,30.2900231 C131.936542,30.3665712 131.653402,30.2790121 131.47856,30.0670505 C131.311149,29.8568117 131.18306,29.6177643 131.100518,29.3615258 C130.648816,28.2337735 130.058171,27.1674958 129.342432,26.1876892 C126.811412,25.9755591 124.309366,24.9203274 122.083608,23.6902357 C119.857185,22.4608203 117.773609,20.9867495 115.576831,19.7051529 C115.196018,19.4736164 114.799226,19.2697732 114.389491,19.0951837 C113.70216,18.8179837 112.930593,18.6743092 112.278961,18.3483182 C112.235167,18.3266289 112.191372,18.3035892 112.148236,18.2798668 C112.001026,18.1993459 111.861609,18.1051851 111.731796,17.9986089 C111.661633,17.9413098 111.595022,17.8797455 111.532337,17.8142612 C111.207208,17.4338474 110.949418,17.0001253 110.770197,16.5319883 C110.420469,15.7539502 110.295798,14.8152846 109.946744,14.0372443 C110.107174,13.8864483 110.287429,13.758518 110.482459,13.6570366 L110.483134,13.6570366 C110.51143,13.6421234 110.539735,13.6278908 110.568714,13.6143388 C110.706821,13.5489199 110.850475,13.496071 110.997955,13.4564252 C111.081519,13.4340597 111.165752,13.4157606 111.250655,13.401528 C111.254085,13.4011773 111.257474,13.4004957 111.260774,13.3994926 C111.654504,13.3349742 112.057902,13.3670602 112.436654,13.4930212 C112.990565,13.6814332 113.457544,14.0575766 113.923191,14.4133877 C114.679666,14.9493882 115.405234,15.5282045 116.096385,16.1470357 C116.480483,16.5170665 116.830886,16.9237126 117.243961,17.2598763 C117.587216,17.5263222 117.949116,17.7675431 118.326849,17.9816646 C120.562051,19.3208658 122.797466,20.6598438 125.033095,21.9985985 C125.789835,22.4520046 126.547253,22.9054086 127.287165,23.3852446 C128.411157,24.1144895 129.494711,24.9047271 130.577607,25.6942905 C131.21575,26.1592154 131.853673,26.6243665 132.491376,27.0897437 C132.700613,27.2239828 132.884316,27.3947455 133.033825,27.5939806 C133.16593,27.8201944 133.247986,28.0723972 133.274397,28.333396 C133.43447,29.3878551 133.34418,30.4654455 133.010908,31.4780911 Z" id="Path" fill="#FBBEBE"></path>
                <path d="M113.484497,23.7051446 C113.216303,24.914904 112.000659,25.6461908 111.365205,26.7088683 C110.575445,28.0277437 110.897543,29.560776 111.19405,31.0714492 C110.652265,31.5411241 110.110256,32.0107961 109.568021,32.4804652 C109.268833,32.7386812 108.969642,32.9982498 108.647535,33.2266523 C108.177865,33.5431606 107.687026,33.8266751 107.17852,34.0751729 C106.698732,34.3232271 106.218945,34.5715038 105.739159,34.8200031 C105.293141,35.0722361 104.820538,35.2736406 104.330118,35.4204803 C103.384692,35.6644637 102.380647,35.4936723 101.445331,35.2110575 C101.335032,35.1819661 101.229003,35.138446 101.129961,35.0816114 C101.071614,35.0466212 101.020764,35.0003151 100.980367,34.9453849 C100.888147,34.7791132 100.854658,34.5863232 100.885358,34.3984523 C100.980367,32.8152634 101.365137,31.2652825 101.748567,29.7268225 C101.953513,28.8038569 102.229042,27.8981929 102.572695,27.0179129 C102.909773,26.2636389 103.297231,25.5331793 103.732414,24.8315437 C104.212715,23.9487446 104.781729,23.1177891 105.430533,22.3517065 C105.746395,22.056855 106.01225,21.7120929 106.217598,21.3310375 C106.456819,20.7820738 106.364507,20.1524529 106.413016,19.5546917 C106.45014,19.1055794 106.568671,18.6670917 106.762753,18.2608978 L106.762753,18.2602194 C106.866565,18.0414266 106.99161,17.8334814 107.136067,17.639412 C107.201437,17.7925806 107.266803,17.9455231 107.332162,18.0982394 C107.375291,18.198544 107.417966,18.2986261 107.460189,18.3984855 C107.515449,18.5272554 107.570258,18.6555729 107.624615,18.7834382 C107.781622,19.1507737 107.938408,19.5178803 108.094974,19.8847578 C108.264166,20.3468523 108.505263,20.7789849 108.809254,21.165004 C109.091932,21.5670978 109.563891,21.7902273 110.052092,21.752585 C110.540294,21.7149428 110.97292,21.4220662 111.191354,20.9813348 C111.417855,20.5769119 111.581904,20.1402051 111.677877,19.686184 C111.810955,19.133367 111.829308,18.5588951 111.73179,17.9986262 C111.569387,16.9196677 111.113184,15.8176738 110.781642,14.8153018 C110.646694,14.4810843 110.568563,14.1264308 110.550513,13.7661634 C110.551184,13.7256795 110.55524,13.6853241 110.562638,13.6455243 C110.564662,13.6353603 110.566686,13.6245157 110.568707,13.6143517 C110.706814,13.5489328 110.850468,13.4960839 110.997949,13.4564382 C111.081512,13.4340726 111.165746,13.4157735 111.250649,13.4015409 C111.542436,14.9901532 111.834667,16.5787648 112.127341,18.1673757 C112.134086,18.2046523 112.141496,18.2419268 112.148233,18.2798797 C112.190012,18.5075972 112.232466,18.7353191 112.279633,18.9623582 C112.322095,19.1683886 112.367913,19.3737428 112.419126,19.5777443 L112.42115,19.5838418 C112.438672,19.6529803 112.456866,19.7214231 112.475737,19.7898745 L112.476403,19.7919055 C112.528292,19.9789628 112.586242,20.1646609 112.651604,20.3476495 C113.047838,21.4503218 113.738544,22.5604529 113.484497,23.7051446 Z" id="Path" fill="#6C63FF"></path>
                <path d="M129.619657,40.706092 C129.607134,40.9391374 129.652006,41.171688 129.75029,41.3831062 C129.999118,41.8404818 130.596152,41.9444523 131.112789,41.9872255 C134.130682,42.2367203 137.16691,42.1436812 140.164103,41.7098662 C140.326717,41.698679 140.484483,41.6494357 140.624823,41.5660625 C141.050954,41.2655815 140.788283,40.5332717 140.322972,40.2988363 C139.857661,40.0644009 139.305477,40.1208985 138.794928,40.0193791 C138.2877,39.8909687 137.804669,39.680277 137.36483,39.3955886 C136.329424,38.7972947 135.309129,38.1735351 134.303945,37.5243098 C133.705489,37.137772 132.999173,36.725248 132.325202,36.9544302 C130.499516,37.5755994 129.607641,38.7253246 129.619657,40.706092 Z" id="Path" fill="#3F3D56"></path>
                <path d="M107.372592,17.8745905 L107.372592,17.8752689 C107.36788,17.903732 107.363156,17.9315188 107.357094,17.9593077 C107.349684,18.0054 107.340923,18.0521557 107.332162,18.0982308 C107.248604,18.5285951 107.146177,18.9569218 107.028251,19.3825412 C106.704795,20.5584098 106.271509,21.7153052 105.841586,22.8552563 C104.687939,25.9118397 103.534067,28.9686499 102.379973,32.0256871 C102.088862,32.7955945 101.798433,33.5661782 101.467567,34.3204982 C101.357064,34.5719403 101.243173,34.8254114 101.129961,35.0815985 C100.724298,35.9985705 100.334812,36.9453689 100.20543,37.9213068 C100.084801,38.5636039 100.070911,39.2215741 100.164325,39.8684418 C100.293708,40.5082246 100.67983,41.1330942 101.284278,41.3696231 C101.579429,41.4855172 102.001931,41.6407169 101.921071,41.9490874 C101.877277,42.1185197 101.685895,42.2012058 101.514059,42.2296689 C101.054674,42.3033065 100.586517,42.1677179 100.236424,41.8596382 C99.9136426,41.5716 99.6656687,41.1236151 99.2364189,41.0754982 C98.9392456,41.0429751 98.6656634,41.2218865 98.3934218,41.3472662 C97.282903,41.8576028 95.9890887,41.5004348 94.8226397,41.1378477 C94.9142842,40.6627545 95.3886838,40.3496412 95.8597105,40.2547578 C96.3307372,40.1591982 96.8179346,40.2269732 97.2983884,40.2140954 C97.4522555,40.2223476 97.6049266,40.1828362 97.7357224,40.1009129 C97.8529724,39.9926629 97.9351473,39.851453 97.9715731,39.6956258 C98.2810578,38.7733084 98.5112413,37.8259708 98.6595879,36.8640483 C98.8145702,35.8589668 98.8792679,34.8382978 99.1002863,33.8454178 C99.2721246,33.0707634 99.537629,32.3205142 99.7653846,31.5600923 C100.205826,29.9944248 100.567476,28.4074122 100.848954,26.8051022 C100.991257,26.1394042 101.093198,25.4656228 101.154214,24.7874846 C101.192622,24.2249646 101.174426,23.6597308 101.22833,23.099244 C101.318805,22.3700492 101.470059,21.6497929 101.680494,20.9460806 C101.886691,20.1782072 102.092668,19.4107839 102.298426,18.6438108 C102.603687,17.5086046 102.931172,16.329348 103.704766,15.4469345 C104.247865,14.8190184 105.025417,14.4455534 105.852362,14.4154252 C106.005764,14.4152374 106.15873,14.4318254 106.308566,14.4648969 C106.333491,14.4709945 106.358431,14.4770963 106.383354,14.4838723 C106.546638,14.5268086 106.703308,14.5920259 106.849001,14.6777077 C107.087542,14.5252154 107.208831,14.5787557 107.367195,14.8139298 C107.50602,15.0628187 107.571469,15.3463355 107.555879,15.6312822 C107.569227,16.383325 107.507826,17.1348274 107.372592,17.8745905 Z" id="Path" fill="#FBBEBE"></path>
                <path d="M107.634723,18.7732677 L107.624615,18.7834317 L107.570036,18.8383289 L107.028251,19.382552 L106.762753,18.2609 L105.852371,14.4154231 C106.005772,14.4152352 106.158739,14.4318233 106.308574,14.4648948 C106.315058,14.4208401 106.325661,14.3774991 106.340243,14.3354486 L106.383363,14.4838723 L106.691995,15.5397846 L107.276227,17.5445265 L107.372596,17.874584 L107.372596,17.8752625 L107.634723,18.7732677 Z" id="Path" fill="#6C63FF"></path>
                <path d="M111.072703,6.50521846 C111.071786,7.22434849 110.786701,7.91362263 110.280233,8.42124338 C110.189414,8.51272498 110.092066,8.59740589 109.988968,8.67460892 C109.52396,9.02717301 108.957521,9.21799889 108.375184,9.218272 L105.142337,9.218272 C103.65488,9.2159627 102.450274,8.0025555 102.450274,6.50653985 C102.450274,5.01052419 103.65488,3.79711699 105.142337,3.79480769 L108.375186,3.79480769 C109.86236,3.79870176 111.067392,5.00949457 111.072703,6.50521846 Z" id="Path" fill="#2F2E41"></path>
                <ellipse id="Oval" fill="#2F2E41" cx="114.103769" cy="3.930864" rx="2.76282253" ry="2.77871569"></ellipse>
                <path d="M114.036384,1.15215046 C114.002494,1.15215046 113.968915,1.15350308 113.935303,1.15472 C115.420731,1.2090335 116.597044,2.43590601 116.597044,3.93086508 C116.597044,5.42582414 115.420731,6.65269665 113.935303,6.70701015 C113.968913,6.70822708 114.002492,6.70957969 114.036384,6.70957969 C115.562248,6.70957969 116.799205,5.46550678 116.799205,3.93086508 C116.799205,2.39622337 115.562248,1.15215046 114.036384,1.15215046 Z" id="Path" fill="#000000" opacity="0.1"></path>
                <path d="M100.896134,1.15215046 C100.930024,1.15215046 100.963603,1.15350308 100.997215,1.15472 C99.5117873,1.2090335 98.3354742,2.43590601 98.3354742,3.93086508 C98.3354742,5.42582414 99.5117873,6.65269665 100.997215,6.70701015 C100.963593,6.70822708 100.930024,6.70957969 100.896134,6.70957969 C99.3712201,6.70822942 98.1357443,5.46455208 98.1357443,3.93086508 C98.1357443,2.39717807 99.3712201,1.15350074 100.896134,1.15215046 Z" id="Path" fill="#000000" opacity="0.1"></path>
                <path d="M109.988968,8.67460892 C109.52396,9.02717301 108.957521,9.21799889 108.375184,9.218272 L105.142337,9.218272 C104.559995,9.21799888 103.993552,9.02717316 103.528538,8.67460892 L109.988968,8.67460892 Z" id="Path" fill="#000000" opacity="0.1"></path>
                <path d="M130.865627,28.8089674 C130.865627,28.8089674 131.562112,30.827468 132.199584,30.2900231 L131.69149,27.6516003 L130.865627,28.8089674 Z" id="Path" fill="#FBBEBE"></path>
                <path d="M215.622604,90.3645378 C217.401574,91.0149804 219.394989,90.4643532 220.594091,88.9912988 C221.793193,87.5182443 221.93639,85.4441176 220.951219,83.818521 C219.966048,82.1929244 218.067429,81.3704909 216.216149,81.7674092 L216.327708,84.0746523 L215.242352,82.0973246 C214.177135,82.600718 213.354209,83.508864 212.954415,84.6221945 C212.812433,85.0121793 212.726118,85.4204335 212.698047,85.8347797 C212.557274,87.8322508 213.751061,89.6812722 215.622604,90.3645378 Z" id="Path" fill="#57B894"></path>
                <path d="M220.992986,117.124659 C220.609854,115.162447 222.270043,113.422887 223.90993,112.29218 C225.549817,111.161473 227.465935,110.050502 228.025463,108.13163 C228.829606,105.373873 226.434308,102.848286 224.569972,100.670328 C223.186813,99.054035 221.999004,97.2785566 221.031401,95.3810458 C220.643555,94.6201997 220.287096,93.8248317 220.185024,92.9760052 C220.038028,91.7535985 220.428501,90.5371858 220.821893,89.3711711 C222.1324,85.4868258 223.533561,81.6350274 225.025374,77.8157757" id="Path" stroke="#3F3D56" stroke-width="0.5"></path>
                <path d="M215.806158,89.77052 C217.585128,90.4209625 219.578543,89.8703354 220.777645,88.3972809 C221.976747,86.9242265 222.119945,84.8500998 221.134774,83.2245032 C220.149603,81.5989066 218.250984,80.7764731 216.399704,81.1733914 L216.511262,83.4806345 L215.425904,81.5033068 C214.360688,82.0067007 213.537763,82.9148466 213.13797,84.0281766 C212.995987,84.4181615 212.909673,84.8264157 212.881601,85.2407618 C212.740828,87.2382331 213.934616,89.0872549 215.806158,89.77052 Z" id="Path" stroke="#3F3D56" stroke-width="0.5"></path>
                <path d="M220.448224,77.0189883 C220.965597,75.5832433 222.174872,74.5117176 223.656217,74.1764197 L224.023191,76.3698492 L224.703554,74.0661686 C226.641864,74.0950785 228.339267,75.3808845 228.902051,77.2465881 C229.464836,79.1122917 228.763899,81.1298979 227.168295,82.2371032 C225.572691,83.3443085 223.448454,83.2871184 221.914031,82.0956444 C220.379608,80.9041704 219.786997,78.8517384 220.448218,77.0189883 L220.448224,77.0189883 Z" id="Path" fill="#57B894"></path>
                <path d="M220.692962,76.2269631 C221.210336,74.7912191 222.41961,73.7196945 223.900955,73.3843966 L224.267929,75.5778262 L224.948292,73.2741434 C226.886602,73.3030533 228.584005,74.5888592 229.146789,76.4545629 C229.709574,78.3202665 229.008637,80.3378727 227.413033,81.445078 C225.817429,82.5522833 223.693192,82.4950931 222.158769,81.3036192 C220.624346,80.1121452 220.031735,78.0597132 220.692956,76.2269631 L220.692962,76.2269631 Z" id="Path" stroke="#3F3D56" stroke-width="0.5"></path>
                <path d="M223.787589,100.714783 C225.917476,101.491819 228.288057,100.537916 229.297252,98.4977397 C230.306447,96.4575631 229.633012,93.9805327 227.732067,92.7406695 L227.209276,94.5109717 L226.838566,92.2916874 C226.834901,92.289948 226.831106,92.2885005 226.827216,92.2873582 C225.330141,91.7401399 223.6565,92.0381124 222.437175,93.0689543 C221.217851,94.0997962 220.638241,95.7067681 220.916831,97.2841183 C221.195422,98.8614685 222.289853,100.169361 223.787576,100.714783 L223.787589,100.714783 Z" id="Path" fill="#57B894"></path>
                <path d="M223.999655,99.9125443 C226.129543,100.68958 228.500124,99.7356776 229.509319,97.6955009 C230.518513,95.6553243 229.845079,93.1782939 227.944134,91.9384308 L227.421342,93.7087329 L227.050633,91.4894486 C227.046968,91.4877095 227.043173,91.486262 227.039283,91.4851194 C225.542208,90.9379011 223.868567,91.2358737 222.649242,92.2667155 C221.429917,93.2975574 220.850308,94.9045293 221.128898,96.4818795 C221.407489,98.0592297 222.501919,99.3671223 223.999643,99.9125443 L223.999655,99.9125443 Z" id="Path" stroke="#3F3D56" stroke-width="0.5"></path>
                <path d="M219.147559,108.159042 C219.512142,110.245511 221.279911,111.789996 223.385046,111.861297 C225.49018,111.932598 227.357258,110.511227 227.860582,108.454154 C228.363907,106.397081 227.365899,104.266592 225.468276,103.347198 C223.570652,102.427804 221.292115,102.970815 220.006436,104.648839 L221.992203,107.654863 L219.278901,106.059363 C219.068521,106.738569 219.023476,107.458672 219.147559,108.159042 Z" id="Path" fill="#57B894"></path>
                <path d="M219.331114,107.565024 C219.695696,109.651493 221.463466,111.195978 223.5686,111.267279 C225.673735,111.338581 227.540812,109.917209 228.044137,107.860136 C228.547462,105.803063 227.549453,103.672574 225.65183,102.75318 C223.754207,101.833786 221.475669,102.376797 220.18999,104.054821 L222.175758,107.060847 L219.462456,105.465345 C219.252074,106.144551 219.207029,106.864654 219.331114,107.565024 Z" id="Path" stroke="#3F3D56" stroke-width="0.5"></path>
                <path d="M1.92897188,101.284346 C3.09778947,101.711709 4.4075075,101.349941 5.19534503,100.382116 C5.98318257,99.41429 6.07726706,98.0515446 5.42998719,96.9834948 C4.78270732,95.9154449 3.53527194,95.3750935 2.31894395,95.6358846 L2.39224199,97.1517852 L1.67914134,95.8526455 C0.979273778,96.1833863 0.438596894,96.7800573 0.175926443,97.5115378 C0.0826411176,97.7677657 0.0259307174,98.0359968 0.0074867784,98.3082305 C-0.084995662,99.6205984 0.699342004,100.835429 1.92897188,101.284346 Z" id="Path" fill="#57B894"></path>
                <path d="M5.45741173,118.866233 C5.20568594,117.577025 6.29646201,116.43411 7.37389637,115.691206 C8.45133073,114.948301 9.71025521,114.218384 10.0778783,112.95765 C10.6062166,111.145752 9.03245549,109.486397 7.80755559,108.055438 C6.89879504,106.993504 6.11838349,105.826982 5.48265177,104.580282 C5.20626424,104.090587 5.01801274,103.555658 4.92656574,103.000128 C4.82998287,102.196985 5.0865378,101.397781 5.34500084,100.631686 C6.20602747,98.079599 7.12661496,95.5488972 8.10676331,93.0395803" id="Path" stroke="#3F3D56" stroke-width="0.5"></path>
                <path d="M2.04957197,100.894065 C3.21838807,101.321424 4.52810231,100.959655 5.3159373,99.9918305 C6.10377228,99.0240064 6.19785655,97.6612643 5.550579,96.5932163 C4.90330145,95.5251682 3.65587002,94.984816 2.43954404,95.2456034 L2.51284209,96.7615062 L1.79973929,95.4623557 C1.09987159,95.7930963 0.55919464,96.3897673 0.296524395,97.121248 C0.203240072,97.3774754 0.146529699,97.6457056 0.12808473,97.9179385 C0.0355961554,99.2303112 0.81993626,100.445149 2.04957197,100.894065 Z" id="Path" stroke="#3F3D56" stroke-width="0.5"></path>
                <path d="M5.0994919,92.5160772 C5.43941533,91.5727664 6.23393115,90.8687545 7.20720205,90.6484578 L7.44831015,92.0895812 L7.89532607,90.5760197 C9.16882739,90.595016 10.2840477,91.4398128 10.6538054,92.6656108 C11.0235632,93.8914088 10.5630356,95.2170087 9.51469788,95.9444608 C8.46636018,96.6719129 7.07070211,96.6343389 6.06256017,95.8515222 C5.05441822,95.0687054 4.66506122,93.7202248 5.0994919,92.5160772 Z" id="Path" fill="#57B894"></path>
                <path d="M5.2602906,91.9957015 C5.60021463,91.0523916 6.39473034,90.3483805 7.36800074,90.1280843 L7.60910885,91.5692077 L8.05612477,90.0556462 C9.32962622,90.0746428 10.4448463,90.91944 10.8146037,92.1452383 C11.184361,93.3710366 10.7238327,94.6966365 9.67549455,95.4240881 C8.62715636,96.1515398 7.23149814,96.113965 6.22335659,95.3311474 C5.21521504,94.5483299 4.82585894,93.1998489 5.2602906,91.9957015 Z" id="Path" stroke="#3F3D56" stroke-width="0.5"></path>
                <path d="M7.29351629,108.084646 C8.69289233,108.595179 10.250413,107.968449 10.9134747,106.628013 C11.5765364,105.287577 11.1340752,103.660119 9.88511518,102.845508 L9.54163138,104.008628 L9.29806909,102.550519 C9.29566252,102.549377 9.29317073,102.548427 9.29061657,102.547676 C8.30695746,102.187922 7.20717398,102.383589 6.40591896,103.060903 C5.60466394,103.738218 5.22379857,104.794169 5.40692101,105.83063 C5.59004345,106.867091 6.30930301,107.726429 7.29351629,108.084646 Z" id="Path" fill="#57B894"></path>
                <path d="M7.4328419,107.557561 C8.83221793,108.068094 10.3897386,107.441364 11.0528003,106.100928 C11.715862,104.760493 11.2734008,103.133034 10.0244408,102.318423 L9.68095698,103.481543 L9.43739469,102.023432 C9.43498812,102.02229 9.43249633,102.02134 9.42994218,102.020589 C7.90969482,101.465932 6.2302247,102.255788 5.67874069,103.784781 C5.12725667,105.313773 5.91259454,107.002904 7.4328419,107.557561 Z" id="Path" stroke="#3F3D56" stroke-width="0.5"></path>
                <path d="M4.24493482,112.97566 C4.48447497,114.346508 5.64593368,115.36126 7.02904567,115.408104 C8.41215766,115.454947 9.63885988,114.521078 9.9695505,113.169542 C10.3002411,111.818007 9.64452841,110.418238 8.39775388,109.814182 C7.15097934,109.210127 5.65393924,109.566898 4.80922719,110.669393 L6.11391182,112.644407 L4.33122337,111.59613 C4.19300102,112.042382 4.16340763,112.515504 4.24493482,112.97566 Z" id="Path" fill="#57B894"></path>
                <path d="M4.36553063,112.585379 C4.60507078,113.956227 5.76652949,114.970979 7.14964148,115.017822 C8.53275347,115.064666 9.75945569,114.130796 10.0901463,112.779261 C10.4208369,111.427726 9.76512422,110.027957 8.51834969,109.423901 C7.27157515,108.819845 5.77453505,109.176617 4.929823,110.279111 L6.23450764,112.254126 L4.45181704,111.205849 C4.3135954,111.652101 4.28400275,112.125223 4.36553063,112.585379 Z" id="Path" stroke="#3F3D56" stroke-width="0.5"></path>
                <ellipse id="Oval" fill="#2F2E41" cx="102.995885" cy="68.7325692" rx="3.6405959" ry="4.73846154"></ellipse>
                <ellipse id="Oval" fill="#2F2E41" cx="122.805009" cy="68.8402615" rx="3.6405959" ry="4.73846154"></ellipse>
                <path d="M120.021024,82.8402615 C120.021024,84.9811846 117.048585,86.7171846 113.382291,86.7171846 C109.715996,86.7171846 106.743557,84.9811846 106.743557,82.8402615 C106.743557,80.9858 108.972886,79.4350308 111.95175,79.0559538 C112.426011,78.9930442 112.903924,78.9621034 113.382291,78.9633385 C114.183847,78.9607378 114.983226,79.0474199 115.76581,79.2218 C118.254264,79.7796462 120.021024,81.1904154 120.021024,82.8402615 Z" id="Path" fill="#2F2E41"></path>
                <ellipse id="Oval" stroke="#3F3D56" stroke-width="0.5" cx="103.852495" cy="67.6556462" rx="3.6405959" ry="4.73846154"></ellipse>
                <ellipse id="Oval" stroke="#3F3D56" stroke-width="0.5" cx="123.66162" cy="67.7633385" rx="3.6405959" ry="4.73846154"></ellipse>
                <ellipse id="Oval" stroke="#3F3D56" stroke-width="0.5" cx="114.238901" cy="81.7633385" rx="6.63873371" ry="3.87692308"></ellipse>
                <path d="M115.845047,79.5448769 C115.846782,79.8157282 115.745675,80.0770351 115.562365,80.2754615 C115.387338,80.4676309 115.140475,80.5775626 114.881359,80.5787231 L112.739832,80.5787231 C112.190488,80.5594896 111.759824,80.097472 111.776145,79.5448769 C111.775028,79.3348829 111.836165,79.1293189 111.95175,78.9544345 C112.425657,78.8873563 112.903716,78.8543432 113.382291,78.8556462 C114.18481,78.8529876 114.984842,78.9455241 115.76581,79.1313385 C115.81867,79.2627024 115.845583,79.4031639 115.845047,79.5448769 Z" id="Path" fill="#FFFFFF"></path>
                <ellipse id="Oval" fill="#FFFFFF" cx="103.852495" cy="66.3633385" rx="1.0707635" ry="1.07692308"></ellipse>
                <ellipse id="Oval" fill="#FFFFFF" cx="123.768696" cy="66.3633385" rx="1.0707635" ry="1.07692308"></ellipse>
                <ellipse id="Oval" fill="#6C63FF" opacity="0.3" cx="124.83946" cy="76.4864154" rx="1.0707635" ry="1.07692308"></ellipse>
                <ellipse id="Oval" fill="#6C63FF" opacity="0.3" cx="98.7128305" cy="76.4864154" rx="1.0707635" ry="1.07692308"></ellipse>
            </g>
        </g>
    </g>
</svg>